<svg width="14" height="22" viewBox="0 0 14 22" fill="none" xmlns="http://www.w3.org/2000/svg">
<path d="M13.4669 7.77164C13.4343 7.70452 13.3835 7.64793 13.3203 7.60834C13.2571 7.56875 13.184 7.54777 13.1094 7.54779H8.97002L12.2767 0.567157C12.3054 0.506618 12.3183 0.439796 12.3142 0.372916C12.3102 0.306036 12.2892 0.241273 12.2534 0.18466C12.2176 0.128046 12.168 0.0814241 12.1093 0.0491361C12.0506 0.0168482 11.9846 -5.53487e-05 11.9176 1.36154e-07H5.56159C5.48496 -1.17623e-05 5.40997 0.0221383 5.34565 0.0637803C5.28132 0.105422 5.23041 0.164779 5.19906 0.234697L0.0347819 11.755C0.00765012 11.8155 -0.00390739 11.8818 0.00116359 11.9479C0.00623458 12.0141 0.0277726 12.0778 0.0638139 12.1335C0.0998551 12.1892 0.149253 12.2349 0.207505 12.2666C0.265757 12.2982 0.33101 12.3148 0.397314 12.3148H4.27418L2.39267 20.9698C2.37348 21.0576 2.38465 21.1493 2.42434 21.23C2.46404 21.3106 2.52991 21.3755 2.6112 21.4138C2.6925 21.4522 2.7844 21.4619 2.87189 21.4412C2.95939 21.4206 3.03731 21.3709 3.09291 21.3003L13.4215 8.19098C13.4676 8.13237 13.4963 8.06198 13.5043 7.98783C13.5124 7.91368 13.4994 7.83877 13.4669 7.77164Z" fill="#003FD1"/>
</svg>
